<svg width="1440" height="1256" viewBox="0 0 1440 1256" fill="none" xmlns="http://www.w3.org/2000/svg">
<path d="M-618.632 1157.31L-618.633 1157.31C-619.117 1154.46 -619.341 1146.62 -619.109 1134.48C-618.877 1122.37 -618.191 1106.01 -616.868 1086.15C-614.223 1046.43 -609.031 992.696 -599.83 930.848C-581.429 807.147 -546.998 651.007 -484.852 509.573C-429.086 382.838 -336.381 283.395 -219.72 238.393C-103.073 193.396 37.5988 202.797 189.376 293.887C514.969 489.344 795.858 509.02 1022.38 451.987C1245.97 395.434 1394.63 225.043 1461.4 116.409C1497.57 57.8114 1538.01 22.984 1577.12 8.46955C1616.21 -6.03846 1654.01 -0.26839 1684.96 22.4019C1746.92 67.7682 1781.64 180.965 1744.09 335.237C1726.39 406.936 1694.22 452.752 1646.31 482.52C1598.37 512.306 1534.61 526.061 1453.64 533.51C1398.55 538.577 1334.92 538.494 1262.15 538.399C1223.12 538.347 1181.47 538.293 1137.1 539.027C1010.02 541.131 860.72 549.711 687.212 583.407C352.57 648.649 -24.0574 805.341 -235.877 1004.84L-235.534 1005.21L-235.877 1004.84C-256.388 1024.18 -276.068 1042.93 -294.923 1060.9C-327.859 1092.29 -358.279 1121.29 -386.222 1146.78C-430.164 1186.86 -467.94 1218.25 -499.691 1236.66C-531.468 1255.09 -557.032 1260.41 -576.685 1248.72C-586.524 1242.86 -594.949 1232.71 -601.948 1217.65C-608.947 1202.6 -614.507 1182.67 -618.632 1157.31Z" fill="url(#paint0_linear_832_27)"/>
<defs>
<linearGradient id="paint0_linear_832_27" x1="1636.47" y1="972.768" x2="-567.86" y2="289.488" gradientUnits="userSpaceOnUse">
<stop stop-color="#6d28d9"/>
<stop offset="1" stop-color="#ec4899"/>
</linearGradient>
</defs>
</svg>
