<svg width="155" height="41" viewBox="0 0 155 41" fill="none" xmlns="http://www.w3.org/2000/svg">
<path fill-rule="evenodd" clip-rule="evenodd" d="M8.55273 4.09787C7.12207 5.09823 5.82837 6.28098 4.70532 7.6124C9.29462 7.18633 15.1252 7.88204 21.8944 11.2667C29.123 14.8809 34.9438 15.0031 38.9948 14.2217C38.6272 13.1088 38.1644 12.0392 37.6163 11.0224C32.979 11.5115 27.034 10.8641 20.1056 7.39998C15.706 5.20018 11.8278 4.29401 8.55273 4.09787ZM34.9074 7.16665C31.2453 3.075 25.9234 0.5 20 0.5C18.2605 0.5 16.5727 0.722107 14.9637 1.13948C17.1429 1.73409 19.4579 2.60399 21.8944 3.82227C26.967 6.35853 31.3464 7.17516 34.9074 7.16665ZM39.8609 18.1281C34.9669 19.0945 28.2088 18.896 20.1056 14.8444C12.53 11.0566 6.50043 11.1043 2.4339 12.008C2.224 12.0546 2.01904 12.1036 1.81903 12.1546C1.28662 13.3125 0.861634 14.5301 0.556702 15.7945C0.882386 15.7075 1.21893 15.6248 1.56616 15.5476C6.49957 14.4513 13.4701 14.4989 21.8944 18.7111C29.4701 22.4989 35.4996 22.4512 39.5662 21.5475C39.7055 21.5166 39.8428 21.4846 39.9778 21.4516C39.9926 21.1363 40 20.819 40 20.5C40 19.6975 39.9528 18.906 39.8609 18.1281ZM39.3248 25.6723C34.4783 26.5196 27.917 26.1944 20.1056 22.2888C12.53 18.501 6.50043 18.5487 2.4339 19.4524C1.53125 19.6529 0.719239 19.8972 0.00293 20.1551C0.000977 20.2698 0 20.3848 0 20.5C0 31.5457 8.95429 40.5 20 40.5C29.2571 40.5 37.0453 34.2109 39.3248 25.6723Z" fill="url(#paint0_linear_832_821)"/>
<path d="M72.6523 12.3672L67.0391 29.5H61.5898L56 12.3672H61.2031L63.5352 21.0508C63.6211 21.3789 63.7188 21.8008 63.8281 22.3164C63.9453 22.8242 64.0508 23.332 64.1445 23.8398C64.2461 24.3477 64.3086 24.7617 64.332 25.082C64.3633 24.7617 64.4219 24.3516 64.5078 23.8516C64.5938 23.3516 64.6875 22.8516 64.7891 22.3516C64.8984 21.8438 65 21.4258 65.0938 21.0977L67.4727 12.3672H72.6523ZM82.2617 15.9883C82.5117 15.9883 82.7734 16.0078 83.0469 16.0469C83.3203 16.0781 83.5234 16.1055 83.6562 16.1289L83.2461 20.4531C83.0977 20.4141 82.9062 20.3828 82.6719 20.3594C82.4375 20.3281 82.1094 20.3125 81.6875 20.3125C81.3984 20.3125 81.0898 20.3398 80.7617 20.3945C80.4336 20.4492 80.1211 20.5664 79.8242 20.7461C79.5352 20.918 79.2969 21.1836 79.1094 21.543C78.9219 21.8945 78.8281 22.3711 78.8281 22.9727V29.5H74.2461V16.2227H77.6562L78.3711 18.3438H78.5938C78.8359 17.9062 79.1445 17.5117 79.5195 17.1602C79.9023 16.8008 80.3281 16.5156 80.7969 16.3047C81.2734 16.0938 81.7617 15.9883 82.2617 15.9883ZM98.1992 22.832C98.1992 23.9414 98.0469 24.9258 97.7422 25.7852C97.4375 26.6445 96.9961 27.3672 96.418 27.9531C95.8398 28.5391 95.1406 28.9844 94.3203 29.2891C93.5 29.5859 92.5742 29.7344 91.543 29.7344C90.582 29.7344 89.6992 29.5859 88.8945 29.2891C88.0977 28.9844 87.4023 28.5391 86.8086 27.9531C86.2148 27.3672 85.7539 26.6445 85.4258 25.7852C85.1055 24.9258 84.9453 23.9414 84.9453 22.832C84.9453 21.3633 85.2109 20.1211 85.7422 19.1055C86.2812 18.0898 87.0469 17.3164 88.0391 16.7852C89.0391 16.2539 90.2305 15.9883 91.6133 15.9883C92.8867 15.9883 94.0195 16.2539 95.0117 16.7852C96.0039 17.3164 96.7812 18.0898 97.3438 19.1055C97.9141 20.1211 98.1992 21.3633 98.1992 22.832ZM89.5977 22.832C89.5977 23.5898 89.6641 24.2305 89.7969 24.7539C89.9297 25.2695 90.1406 25.6641 90.4297 25.9375C90.7266 26.2031 91.1133 26.3359 91.5898 26.3359C92.0664 26.3359 92.4453 26.2031 92.7266 25.9375C93.0078 25.6641 93.2109 25.2695 93.3359 24.7539C93.4688 24.2305 93.5352 23.5898 93.5352 22.832C93.5352 22.0742 93.4688 21.4414 93.3359 20.9336C93.2109 20.4258 93.0039 20.043 92.7148 19.7852C92.4336 19.5273 92.0508 19.3984 91.5664 19.3984C90.8711 19.3984 90.3672 19.6875 90.0547 20.2656C89.75 20.8438 89.5977 21.6992 89.5977 22.832ZM117.031 15.9883C118.547 15.9883 119.703 16.375 120.5 17.1484C121.305 17.9219 121.707 19.1602 121.707 20.8633V29.5H117.125V22.2812C117.125 21.2734 116.988 20.5742 116.715 20.1836C116.449 19.7852 116.051 19.5859 115.52 19.5859C114.777 19.5859 114.262 19.9102 113.973 20.5586C113.691 21.207 113.551 22.125 113.551 23.3125V29.5H108.957V22.2812C108.957 21.6406 108.898 21.125 108.781 20.7344C108.672 20.3359 108.504 20.0469 108.277 19.8672C108.051 19.6797 107.766 19.5859 107.422 19.5859C106.898 19.5859 106.488 19.7461 106.191 20.0664C105.902 20.3789 105.699 20.8398 105.582 21.4492C105.465 22.0586 105.406 22.8047 105.406 23.6875V29.5H100.824V16.2227H104.281L104.949 17.8633H105.078C105.312 17.5039 105.613 17.1836 105.98 16.9023C106.355 16.6211 106.797 16.3984 107.305 16.2344C107.82 16.0703 108.406 15.9883 109.062 15.9883C110.039 15.9883 110.844 16.1523 111.477 16.4805C112.109 16.8086 112.625 17.2617 113.023 17.8398H113.164C113.586 17.2461 114.129 16.7891 114.793 16.4688C115.457 16.1484 116.203 15.9883 117.031 15.9883ZM137.504 22.832C137.504 23.9414 137.352 24.9258 137.047 25.7852C136.742 26.6445 136.301 27.3672 135.723 27.9531C135.145 28.5391 134.445 28.9844 133.625 29.2891C132.805 29.5859 131.879 29.7344 130.848 29.7344C129.887 29.7344 129.004 29.5859 128.199 29.2891C127.402 28.9844 126.707 28.5391 126.113 27.9531C125.52 27.3672 125.059 26.6445 124.73 25.7852C124.41 24.9258 124.25 23.9414 124.25 22.832C124.25 21.3633 124.516 20.1211 125.047 19.1055C125.586 18.0898 126.352 17.3164 127.344 16.7852C128.344 16.2539 129.535 15.9883 130.918 15.9883C132.191 15.9883 133.324 16.2539 134.316 16.7852C135.309 17.3164 136.086 18.0898 136.648 19.1055C137.219 20.1211 137.504 21.3633 137.504 22.832ZM128.902 22.832C128.902 23.5898 128.969 24.2305 129.102 24.7539C129.234 25.2695 129.445 25.6641 129.734 25.9375C130.031 26.2031 130.418 26.3359 130.895 26.3359C131.371 26.3359 131.75 26.2031 132.031 25.9375C132.312 25.6641 132.516 25.2695 132.641 24.7539C132.773 24.2305 132.84 23.5898 132.84 22.832C132.84 22.0742 132.773 21.4414 132.641 20.9336C132.516 20.4258 132.309 20.043 132.02 19.7852C131.738 19.5273 131.355 19.3984 130.871 19.3984C130.176 19.3984 129.672 19.6875 129.359 20.2656C129.055 20.8438 128.902 21.6992 128.902 22.832ZM148.438 15.9883C149.805 15.9883 150.922 16.375 151.789 17.1484C152.656 17.9219 153.09 19.1602 153.09 20.8633V29.5H148.508V22.2578C148.508 21.375 148.379 20.7109 148.121 20.2656C147.871 19.8125 147.465 19.5859 146.902 19.5859C146.035 19.5859 145.453 19.9414 145.156 20.6523C144.859 21.3555 144.711 22.3672 144.711 23.6875V29.5H140.129V16.2227H143.586L144.207 17.9805H144.383C144.664 17.5586 145 17.1992 145.391 16.9023C145.781 16.6055 146.23 16.3789 146.738 16.2227C147.246 16.0664 147.812 15.9883 148.438 15.9883Z" fill="#191825"/>
<defs>
<linearGradient id="paint0_linear_832_821" x1="36" y1="43.7" x2="-3.73321" y2="36.0931" gradientUnits="userSpaceOnUse">
<stop stop-color="#5D50C6"/>
<stop offset="1" stop-color="#F85E9F"/>
</linearGradient>
</defs>
</svg>
